# xmcd
#
# Track frame offsets:
#	150
#	21092
#	41283
#	60415
#	79874
#	98026
#	120680
#	143652
#	164410
#	182703
#	201101
#	217884
#
# Disc length: 3218 seconds
#
# Revision: 1
# Processed by: cddbd v1.5.1PL2 Copyright (c) Steve Scherf et al.
# Submitted via: audiograbber 1.81.02
#
DISCID=980c900c
DTITLE=Andreas Volz - Auf Augenhöhe
DYEAR=2005
DGENRE=Chanson
TTITLE0=Auf Augenhöhe
TTITLE1=Eindeutig ja
TTITLE2=Mit jedem Atemzug
TTITLE3=Quelle des Lebens
TTITLE4=Öffne meine Augen
TTITLE5=Immer für dich da
TTITLE6=Nimm mich an
TTITLE7=Eigentlich
TTITLE8=Ein langes Leben
TTITLE9=Kopf durch die Wand
TTITLE10=Hoff endlich
TTITLE11=Unvergleichlich schön
EXTD=
EXTT0=
EXTT1=
EXTT2=
EXTT3=
EXTT4=
EXTT5=
EXTT6=
EXTT7=
EXTT8=
EXTT9=
EXTT10=
EXTT11=
PLAYORDER=
